<svg width="42" height="41" viewBox="0 0 42 41" fill="none" xmlns="http://www.w3.org/2000/svg">
<path d="M20.3101 7.17703C24.9886 7.17703 25.5426 7.19706 27.3826 7.27715C29.0926 7.35057 30.0159 7.6309 30.6315 7.86451C31.4455 8.17153 32.0337 8.5453 32.6425 9.13933C33.2581 9.74003 33.6343 10.3074 33.9489 11.1016C34.1883 11.7023 34.4756 12.6101 34.5508 14.272C34.6329 16.0741 34.6534 16.6147 34.6534 21.1734C34.6534 25.7388 34.6329 26.2794 34.5508 28.0748C34.4756 29.7435 34.1883 30.6445 33.9489 31.2452C33.6343 32.0395 33.2512 32.6135 32.6425 33.2075C32.0269 33.8082 31.4455 34.1753 30.6315 34.4823C30.0159 34.7159 29.0857 34.9963 27.3826 35.0697C25.5358 35.1498 24.9817 35.1698 20.3101 35.1698C15.6315 35.1698 15.0775 35.1498 13.2376 35.0697C11.5276 34.9963 10.6042 34.7159 9.98859 34.4823C9.17463 34.1753 8.5864 33.8015 7.97764 33.2075C7.36205 32.6068 6.98585 32.0395 6.67121 31.2452C6.43182 30.6445 6.14454 29.7368 6.0693 28.0748C5.98722 26.2727 5.9667 25.7321 5.9667 21.1734C5.9667 16.6081 5.98722 16.0674 6.0693 14.272C6.14454 12.6034 6.43182 11.7023 6.67121 11.1016C6.98585 10.3074 7.36889 9.73336 7.97764 9.13933C8.59324 8.53863 9.17463 8.17153 9.98859 7.86451C10.6042 7.6309 11.5344 7.35057 13.2376 7.27715C15.0775 7.19706 15.6315 7.17703 20.3101 7.17703ZM20.3101 4.1001C15.5563 4.1001 14.9612 4.12012 13.0939 4.20021C11.2335 4.28031 9.95439 4.57399 8.84632 4.99448C7.69037 5.43499 6.71225 6.01567 5.74098 6.97012C4.76287 7.9179 4.16779 8.87235 3.71636 9.99366C3.28544 11.0816 2.98448 12.3231 2.9024 14.1385C2.82032 15.9673 2.7998 16.548 2.7998 21.1868C2.7998 25.8255 2.82032 26.4062 2.9024 28.2283C2.98448 30.0438 3.28544 31.2919 3.71636 32.3732C4.16779 33.5012 4.76287 34.4556 5.74098 35.4034C6.71225 36.3512 7.69037 36.9385 8.83948 37.3724C9.95439 37.7929 11.2266 38.0866 13.0871 38.1666C14.9544 38.2467 15.5495 38.2668 20.3032 38.2668C25.057 38.2668 25.6521 38.2467 27.5194 38.1666C29.3798 38.0866 30.6589 37.7929 31.767 37.3724C32.9161 36.9385 33.8942 36.3512 34.8655 35.4034C35.8367 34.4556 36.4387 33.5012 36.8833 32.3799C37.3142 31.2919 37.6151 30.0505 37.6972 28.235C37.7793 26.4129 37.7998 25.8322 37.7998 21.1934C37.7998 16.5547 37.7793 15.974 37.6972 14.1519C37.6151 12.3364 37.3142 11.0883 36.8833 10.007C36.4523 8.87235 35.8573 7.9179 34.8791 6.97012C33.9079 6.02235 32.9298 5.43499 31.7807 5.00115C30.6657 4.58066 29.3935 4.28698 27.533 4.20689C25.6589 4.12012 25.0638 4.1001 20.3101 4.1001Z" fill="#777777"/>
<path d="M20.3101 12.4098C15.3443 12.4098 11.3155 16.3411 11.3155 21.1868C11.3155 26.0324 15.3443 29.9637 20.3101 29.9637C25.2759 29.9637 29.3046 26.0324 29.3046 21.1868C29.3046 16.3411 25.2759 12.4098 20.3101 12.4098ZM20.3101 26.8801C17.0884 26.8801 14.4756 24.3304 14.4756 21.1868C14.4756 18.0431 17.0884 15.4934 20.3101 15.4934C23.5317 15.4934 26.1445 18.0431 26.1445 21.1868C26.1445 24.3304 23.5317 26.8801 20.3101 26.8801Z" fill="#777777"/>
<path d="M31.7601 12.0627C31.7601 13.1974 30.8162 14.1118 29.6603 14.1118C28.4975 14.1118 27.5604 13.1907 27.5604 12.0627C27.5604 10.928 28.5043 10.0136 29.6603 10.0136C30.8162 10.0136 31.7601 10.9347 31.7601 12.0627Z" fill="#777777"/>
</svg>
