<svg width="42" height="41" viewBox="0 0 42 41" fill="none" xmlns="http://www.w3.org/2000/svg">
<path d="M20.3103 7.17703C24.9888 7.17703 25.5428 7.19706 27.3828 7.27715C29.0928 7.35057 30.0161 7.6309 30.6317 7.86451C31.4457 8.17153 32.0339 8.5453 32.6427 9.13933C33.2583 9.74003 33.6345 10.3074 33.9491 11.1016C34.1885 11.7023 34.4758 12.6101 34.551 14.272C34.6331 16.0741 34.6536 16.6147 34.6536 21.1734C34.6536 25.7388 34.6331 26.2794 34.551 28.0748C34.4758 29.7435 34.1885 30.6445 33.9491 31.2452C33.6345 32.0395 33.2514 32.6135 32.6427 33.2075C32.0271 33.8082 31.4457 34.1753 30.6317 34.4823C30.0161 34.7159 29.0859 34.9963 27.3828 35.0697C25.536 35.1498 24.9819 35.1698 20.3103 35.1698C15.6317 35.1698 15.0777 35.1498 13.2378 35.0697C11.5278 34.9963 10.6044 34.7159 9.98879 34.4823C9.17483 34.1753 8.5866 33.8015 7.97784 33.2075C7.36225 32.6068 6.98605 32.0395 6.67141 31.2452C6.43201 30.6445 6.14474 29.7368 6.0695 28.0748C5.98742 26.2727 5.9669 25.7321 5.9669 21.1734C5.9669 16.6081 5.98742 16.0674 6.0695 14.272C6.14474 12.6034 6.43201 11.7023 6.67141 11.1016C6.98605 10.3074 7.36909 9.73336 7.97784 9.13933C8.59344 8.53863 9.17483 8.17153 9.98879 7.86451C10.6044 7.6309 11.5346 7.35057 13.2378 7.27715C15.0777 7.19706 15.6317 7.17703 20.3103 7.17703ZM20.3103 4.1001C15.5565 4.1001 14.9614 4.12012 13.0941 4.20021C11.2337 4.28031 9.95459 4.57399 8.84651 4.99448C7.69056 5.43499 6.71245 6.01567 5.74118 6.97012C4.76307 7.9179 4.16799 8.87235 3.71656 9.99366C3.28564 11.0816 2.98468 12.3231 2.9026 14.1385C2.82052 15.9673 2.8 16.548 2.8 21.1868C2.8 25.8255 2.82052 26.4062 2.9026 28.2283C2.98468 30.0438 3.28564 31.2919 3.71656 32.3732C4.16799 33.5012 4.76307 34.4556 5.74118 35.4034C6.71245 36.3512 7.69056 36.9385 8.83967 37.3724C9.95459 37.7929 11.2268 38.0866 13.0873 38.1666C14.9546 38.2467 15.5497 38.2668 20.3034 38.2668C25.0572 38.2668 25.6523 38.2467 27.5196 38.1666C29.38 38.0866 30.6591 37.7929 31.7672 37.3724C32.9163 36.9385 33.8944 36.3512 34.8657 35.4034C35.8369 34.4556 36.4389 33.5012 36.8834 32.3799C37.3144 31.2919 37.6153 30.0505 37.6974 28.235C37.7795 26.4129 37.8 25.8322 37.8 21.1934C37.8 16.5547 37.7795 15.974 37.6974 14.1519C37.6153 12.3364 37.3144 11.0883 36.8834 10.007C36.4525 8.87235 35.8575 7.9179 34.8793 6.97012C33.9081 6.02235 32.93 5.43499 31.7809 5.00115C30.6659 4.58066 29.3937 4.28698 27.5332 4.20689C25.6591 4.12012 25.064 4.1001 20.3103 4.1001Z" fill="#777777"/>
<path d="M20.3103 12.4098C15.3445 12.4098 11.3157 16.3411 11.3157 21.1868C11.3157 26.0324 15.3445 29.9637 20.3103 29.9637C25.2761 29.9637 29.3048 26.0324 29.3048 21.1868C29.3048 16.3411 25.2761 12.4098 20.3103 12.4098ZM20.3103 26.8801C17.0886 26.8801 14.4758 24.3304 14.4758 21.1868C14.4758 18.0431 17.0886 15.4934 20.3103 15.4934C23.5319 15.4934 26.1447 18.0431 26.1447 21.1868C26.1447 24.3304 23.5319 26.8801 20.3103 26.8801Z" fill="#777777"/>
<path d="M31.7603 12.0627C31.7603 13.1974 30.8164 14.1118 29.6605 14.1118C28.4977 14.1118 27.5606 13.1907 27.5606 12.0627C27.5606 10.928 28.5045 10.0136 29.6605 10.0136C30.8164 10.0136 31.7603 10.9347 31.7603 12.0627Z" fill="#777777"/>
</svg>
