<svg width="42" height="42" viewBox="0 0 42 42" fill="none" xmlns="http://www.w3.org/2000/svg">
<path d="M35.313 4.19995H6.68082C5.30926 4.19995 4.2002 5.32788 4.2002 6.72241V36.6707C4.2002 38.0652 5.30926 39.2 6.68082 39.2H35.313C36.6846 39.2 37.8002 38.0652 37.8002 36.6775V6.72241C37.8002 5.32788 36.6846 4.19995 35.313 4.19995ZM14.1686 34.0251H9.18113V17.3181H14.1686V34.0251ZM11.6749 15.0417C10.0736 15.0417 8.78082 13.6951 8.78082 12.0339C8.78082 10.3728 10.0736 9.02612 11.6749 9.02612C13.2696 9.02612 14.5624 10.3728 14.5624 12.0339C14.5624 13.6882 13.2696 15.0417 11.6749 15.0417ZM32.8324 34.0251H27.8514V25.9041C27.8514 23.9695 27.8186 21.4744 25.2593 21.4744C22.6671 21.4744 22.2733 23.5867 22.2733 25.7673V34.0251H17.2989V17.3181H22.0764V19.6013H22.1421C22.8049 18.2888 24.4324 16.9011 26.8539 16.9011C31.9005 16.9011 32.8324 20.3601 32.8324 24.8582V34.0251Z" fill="#777777"/>
</svg>
