<svg width="42" height="42" viewBox="0 0 42 42" fill="none" xmlns="http://www.w3.org/2000/svg">
<path d="M35.3128 4.19995H6.68062C5.30906 4.19995 4.2 5.32788 4.2 6.72241V36.6707C4.2 38.0652 5.30906 39.2 6.68062 39.2H35.3128C36.6844 39.2 37.8 38.0652 37.8 36.6775V6.72241C37.8 5.32788 36.6844 4.19995 35.3128 4.19995ZM14.1684 34.0251H9.18093V17.3181H14.1684V34.0251ZM11.6747 15.0417C10.0734 15.0417 8.78062 13.6951 8.78062 12.0339C8.78062 10.3728 10.0734 9.02612 11.6747 9.02612C13.2694 9.02612 14.5622 10.3728 14.5622 12.0339C14.5622 13.6882 13.2694 15.0417 11.6747 15.0417ZM32.8322 34.0251H27.8512V25.9041C27.8512 23.9695 27.8184 21.4744 25.2591 21.4744C22.6669 21.4744 22.2731 23.5867 22.2731 25.7673V34.0251H17.2987V17.3181H22.0762V19.6013H22.1419C22.8047 18.2888 24.4322 16.9011 26.8537 16.9011C31.9003 16.9011 32.8322 20.3601 32.8322 24.8582V34.0251Z" fill="#777777"/>
</svg>
