<svg width="30" height="30" viewBox="0 0 30 30" fill="none" xmlns="http://www.w3.org/2000/svg">
<path fill-rule="evenodd" clip-rule="evenodd" d="M26.7021 4.31345C27.1053 4.72523 27.0983 5.38589 26.6866 5.78907L13.1678 19.0256L7.48736 13.4637C7.07558 13.0605 7.06862 12.3998 7.4718 11.9881C7.87498 11.5763 8.53564 11.5693 8.94742 11.9725L13.1678 16.1048L25.2265 4.29789C25.6383 3.8947 26.2989 3.90167 26.7021 4.31345Z" fill="#2F59ED"/>
<path fill-rule="evenodd" clip-rule="evenodd" d="M4.04625 5.56679C4.602 5.16665 5.23756 5.04348 5.67675 5.04348H19.1739C19.7502 5.04348 20.2174 5.51066 20.2174 6.08696C20.2174 6.66325 19.7502 7.13044 19.1739 7.13044H5.67675C5.57152 7.13044 5.39044 7.17059 5.26566 7.26043C5.21379 7.29778 5.17655 7.3397 5.14947 7.3922C5.12282 7.44386 5.08696 7.54254 5.08696 7.72023V23.2363C5.08696 23.3415 5.12711 23.5226 5.21695 23.6474C5.2543 23.6993 5.29622 23.7365 5.34872 23.7636C5.40038 23.7902 5.49906 23.8261 5.67675 23.8261H21.1928C21.298 23.8261 21.4791 23.7859 21.6039 23.6961C21.6558 23.6587 21.693 23.6168 21.7201 23.5643C21.7467 23.5127 21.7826 23.414 21.7826 23.2363V13.3913C21.7826 12.815 22.2498 12.3478 22.8261 12.3478C23.4024 12.3478 23.8696 12.815 23.8696 13.3913V23.2363C23.8696 24.2297 23.4323 24.9513 22.8233 25.3897C22.2676 25.7899 21.632 25.913 21.1928 25.913H5.67675C4.68335 25.913 3.96176 25.4758 3.52331 24.8668C3.12317 24.311 3 23.6755 3 23.2363V7.72023C3 6.72683 3.43729 6.00524 4.04625 5.56679Z" fill="#2F59ED"/>
</svg>
