<svg width="41" height="41" viewBox="0 0 41 41" fill="none" xmlns="http://www.w3.org/2000/svg">
<path d="M14.4186 34.1666C26.793 34.1666 33.5631 23.6496 33.5631 14.532C33.5631 14.2363 33.5567 13.9341 33.5439 13.6384C34.8609 12.6616 35.9974 11.4517 36.9001 10.0655C35.6735 10.6252 34.3713 10.9907 33.0378 11.1496C34.4419 10.2864 35.4932 8.93042 35.9968 7.33294C34.6759 8.1358 33.2314 8.70214 31.7251 9.0077C30.7102 7.90173 29.3684 7.16944 27.907 6.92406C26.4456 6.67867 24.9461 6.93387 23.6403 7.65018C22.3346 8.36649 21.2952 9.50402 20.683 10.8869C20.0708 12.2698 19.9199 13.821 20.2535 15.3007C17.5788 15.1631 14.9623 14.4505 12.5734 13.2092C10.1845 11.9678 8.07668 10.2255 6.38649 8.09509C5.52744 9.61411 5.26458 11.4116 5.65131 13.1222C6.03804 14.8329 7.04535 16.3283 8.46852 17.3046C7.40009 17.2699 6.35506 16.9748 5.41979 16.4439V16.5293C5.41883 18.1234 5.95616 19.6687 6.94045 20.9024C7.92474 22.1361 9.29524 22.9822 10.819 23.2967C9.82924 23.5745 8.79047 23.6149 7.78305 23.415C8.21302 24.7859 9.04958 25.985 10.176 26.8448C11.3024 27.7046 12.6624 28.1824 14.0663 28.2113C11.6829 30.1314 8.7388 31.1728 5.70807 31.1679C5.17059 31.1671 4.63364 31.1333 4.1001 31.0667C7.179 33.0926 10.7606 34.1685 14.4186 34.1666Z" fill="#777777"/>
</svg>
