<svg width="41" height="41" viewBox="0 0 41 41" fill="none" xmlns="http://www.w3.org/2000/svg">
<path d="M14.4186 34.1666C26.7929 34.1666 33.563 23.6496 33.563 14.532C33.563 14.2363 33.5566 13.9341 33.5438 13.6384C34.8608 12.6616 35.9973 11.4517 36.9 10.0655C35.6735 10.6252 34.3712 10.9907 33.0377 11.1496C34.4418 10.2864 35.4931 8.93042 35.9967 7.33294C34.6758 8.1358 33.2313 8.70214 31.725 9.0077C30.7102 7.90173 29.3683 7.16944 27.9069 6.92406C26.4455 6.67867 24.946 6.93387 23.6403 7.65018C22.3345 8.36649 21.2951 9.50402 20.6829 10.8869C20.0707 12.2698 19.9198 13.821 20.2534 15.3007C17.5787 15.1631 14.9622 14.4505 12.5733 13.2092C10.1844 11.9678 8.07659 10.2255 6.3864 8.09509C5.52735 9.61411 5.26448 11.4116 5.65121 13.1222C6.03795 14.8329 7.04526 16.3283 8.46843 17.3046C7.4 17.2699 6.35497 16.9748 5.41969 16.4439V16.5293C5.41874 18.1234 5.95607 19.6687 6.94036 20.9024C7.92465 22.1361 9.29515 22.9822 10.8189 23.2967C9.82915 23.5745 8.79038 23.6149 7.78296 23.415C8.21293 24.7859 9.04949 25.985 10.1759 26.8448C11.3023 27.7046 12.6623 28.1824 14.0662 28.2113C11.6829 30.1314 8.73871 31.1728 5.70798 31.1679C5.1705 31.1671 4.63355 31.1333 4.10001 31.0667C7.17891 33.0926 10.7605 34.1685 14.4186 34.1666Z" fill="#777777"/>
</svg>
